<svg id="Capa_3" data-name="Capa 3" xmlns="http://www.w3.org/2000/svg" viewBox="0 0 360 497"><defs><style>.cls-1{fill:#1b4a73;}.cls-2{fill:#f47d21;}</style></defs><title>eprints-logo</title><polygon class="cls-1" points="214 0 0 0 0 497 360 497 360 131 326 131 326 465 34 465 34 33 214 33 214 0"/><polygon class="cls-2" points="245 0 245 106 360 106 245 0"/><path class="cls-1" d="M198,267.55c.93,58,35.71,81.84,77,81.84,29.21,0,47.29-5.36,62.13-12.18l7.42,30.69c-14.37,6.82-39.41,15.1-75.12,15.1C200.27,383,159,334.77,159,263.65S198.88,137,264.26,137C338,137,357,204.22,357,247.58c0,8.77-.46,15.1-1.39,20Zm119.64-30.69c.46-26.79-10.67-69.17-56.58-69.17-41.73,0-59.35,39.46-62.6,69.17Z" transform="translate(-81.5 -7.5)"/></svg>